<?xml version="1.0" encoding="UTF-8"?>
<svg width="256" height="256" viewBox="0 0 256 256" fill="none" xmlns="http://www.w3.org/2000/svg">
	<defs>
		<linearGradient id="g1" x1="0" y1="0" x2="1" y2="1">
			<stop offset="0" stop-color="#0EA5E9"/>
			<stop offset="1" stop-color="#8B5CF6"/>
		</linearGradient>
		<linearGradient id="g2" x1="0" y1="0" x2="1" y2="1">
			<stop offset="0" stop-color="#F59E0B"/>
			<stop offset="1" stop-color="#F43F5E"/>
		</linearGradient>
		<linearGradient id="g3" x1="0" y1="0" x2="1" y2="1">
			<stop offset="0" stop-color="#22C55E"/>
			<stop offset="1" stop-color="#06B6D4"/>
		</linearGradient>
		<filter id="shadow" x="-50%" y="-50%" width="200%" height="200%">
			<feDropShadow dx="0" dy="8" stdDeviation="8" flood-color="rgba(2,6,23,0.35)"/>
		</filter>
	</defs>
	<rect x="0" y="0" width="256" height="256" rx="24" fill="url(#g1)" opacity="0.12"/>
	<g filter="url(#shadow)">
		<rect x="24" y="86" width="60" height="98" rx="12" fill="url(#g2)"/>
		<rect x="32" y="92" width="44" height="20" rx="10" fill="#FFFFFF" opacity="0.85"/>
		<rect x="32" y="114" width="44" height="58" rx="8" fill="#FDE68A" opacity="0.95"/>
	</g>
	<g filter="url(#shadow)">
		<path d="M128 70c20 0 36 16 36 36 0 24-17 38-36 42-19-4-36-18-36-42 0-20 16-36 36-36z" fill="url(#g3)"/>
		<rect x="124" y="154" width="8" height="36" rx="4" fill="#94A3B8"/>
		<rect x="110" y="190" width="36" height="8" rx="4" fill="#CBD5E1"/>
	</g>
	<g filter="url(#shadow)">
		<rect x="180" y="88" width="52" height="82" rx="10" fill="#06B6D4" opacity="0.95"/>
		<rect x="180" y="170" width="52" height="12" rx="6" fill="#0EA5E9" opacity="0.95"/>
		<circle cx="206" cy="78" r="12" fill="#F43F5E"/>
	</g>
</svg>